<?xml version="1.0" encoding="UTF-8"?>
<svg id="Capa_2" data-name="Capa 2" xmlns="http://www.w3.org/2000/svg" viewBox="0 0 235.93 224.34">
  <defs>
    <style>
      .cls-1, .cls-2, .cls-3, .cls-4, .cls-5, .cls-6, .cls-7 {
        stroke-width: 0px;
      }

      .cls-1, .cls-8 {
        fill: #1d71b8;
      }

      .cls-2 {
        fill: #e30613;
      }

      .cls-3 {
        fill: #009fe3;
      }

      .cls-4 {
        fill: #fff;
      }

      .cls-8 {
        font-family: DesignerRegular, Designer;
        font-size: 22.52px;
      }

      .cls-5 {
        fill: #c32b31;
      }

      .cls-9 {
        fill: #ffde00;
        stroke: #1d71b8;
        stroke-miterlimit: 10;
        stroke-width: 4px;
      }

      .cls-6 {
        fill: #1d1d1b;
      }

      .cls-7 {
        fill: #f9b233;
      }
    </style>
  </defs>
  <g id="Logo_2" data-name="Logo 2">
    <g>
      <ellipse class="cls-9" cx="126.17" cy="110.22" rx="107.76" ry="108.22"/>
      <text class="cls-8" transform="translate(46.66 112.27) rotate(-78.24) scale(.91 1)"><tspan x="0" y="0">P</tspan></text>
      <text class="cls-8" transform="translate(49.81 96.63) rotate(-72.32) scale(.91 1)"><tspan x="0" y="0">a</tspan></text>
      <text class="cls-8" transform="translate(55.16 80.93) rotate(-65.17) scale(.91 1)"><tspan x="0" y="0">i</tspan></text>
      <text class="cls-8" transform="translate(57.84 74.5) rotate(-57.76) scale(.91 1)"><tspan x="0" y="0">n</tspan></text>
      <text class="cls-8" transform="translate(66.61 60.82) rotate(-47.64) scale(.91 1)"><tspan x="0" y="0">t</tspan></text>
      <text class="cls-8" transform="translate(76.13 50.66) rotate(-39.16) scale(.91 1)"><tspan x="0" y="0"> </tspan></text>
      <text class="cls-8" transform="translate(83.46 44.5) rotate(-30.26) scale(.91 1)"><tspan x="0" y="0">T</tspan></text>
      <text class="cls-8" transform="translate(96.37 36.91) rotate(-20.5) scale(.91 1)"><tspan x="0" y="0">p</tspan></text>
      <text class="cls-8" transform="translate(111.19 31.66) rotate(-10.77) scale(.91 1)"><tspan x="0" y="0"> </tspan></text>
      <text class="cls-8" transform="translate(120.39 29.5) rotate(1.04) scale(.91 1)"><tspan x="0" y="0">G</tspan></text>
      <text class="cls-8" transform="translate(137.56 29.92) rotate(16.3) scale(.91 1)"><tspan x="0" y="0">u</tspan></text>
      <text class="cls-8" transform="translate(152.97 34.6) rotate(28.91) scale(.91 1)"><tspan x="0" y="0">e</tspan></text>
      <text class="cls-8" transform="translate(165.7 41.57) rotate(39.96) scale(.91 1)"><tspan x="0" y="0">r</tspan></text>
      <text class="cls-8" transform="translate(177.96 51.91) rotate(51.4) scale(.91 1)"><tspan x="0" y="0">r</tspan></text>
      <text class="cls-8" transform="translate(187.9 64.55) rotate(61.55) scale(.91 1)"><tspan x="0" y="0">e</tspan></text>
      <text class="cls-8" transform="translate(194.87 77.39) rotate(71.17) scale(.91 1)"><tspan x="0" y="0">r</tspan></text>
      <text class="cls-8" transform="translate(200.09 92.88) rotate(77.17) scale(.91 1)"><tspan x="0" y="0">o</tspan></text>
      <g>
        <polygon class="cls-3" points="99.28 196.06 85.99 193.48 85.99 148.78 99.28 145.48 99.28 196.06"/>
        <g>
          <g>
            <polygon class="cls-6" points="89.95 158.31 87.33 158.5 87.33 155.68 89.95 155.44 89.95 158.31"/>
            <polygon class="cls-4" points="90.27 158.16 87.85 158.33 87.85 155.73 90.27 155.52 90.27 158.16"/>
            <polygon class="cls-6" points="96.25 158.11 93.05 158.33 93.05 155.07 96.25 154.78 96.25 158.11"/>
            <polygon class="cls-4" points="96.52 157.91 93.61 158.11 93.61 155.14 96.52 154.87 96.52 157.91"/>
          </g>
          <g>
            <polygon class="cls-6" points="89.95 170.39 87.33 170.57 87.33 167.75 89.95 167.52 89.95 170.39"/>
            <polygon class="cls-4" points="90.27 170.24 87.85 170.41 87.85 167.81 90.27 167.6 90.27 170.24"/>
            <polygon class="cls-6" points="96.25 170.19 93.05 170.41 93.05 167.14 96.25 166.86 96.25 170.19"/>
            <polygon class="cls-4" points="96.52 169.99 93.61 170.19 93.61 167.21 96.52 166.95 96.52 169.99"/>
          </g>
          <g>
            <polygon class="cls-6" points="89.95 182.5 87.33 182.69 87.33 179.86 89.95 179.63 89.95 182.5"/>
            <polygon class="cls-4" points="90.27 182.35 87.85 182.52 87.85 179.92 90.27 179.71 90.27 182.35"/>
            <polygon class="cls-6" points="96.25 182.3 93.05 182.52 93.05 179.26 96.25 178.97 96.25 182.3"/>
            <polygon class="cls-4" points="96.52 182.1 93.61 182.3 93.61 179.32 96.52 179.06 96.52 182.1"/>
          </g>
        </g>
      </g>
      <g>
        <polygon class="cls-5" points="155.33 192.7 142.52 195.6 142.52 145.01 155.33 148.54 155.33 192.7"/>
        <g>
          <g>
            <polygon class="cls-6" points="150.9 158.31 153.52 158.5 153.52 155.68 150.9 155.44 150.9 158.31"/>
            <polygon class="cls-4" points="150.58 158.16 152.99 158.33 152.99 155.73 150.58 155.52 150.58 158.16"/>
            <polygon class="cls-6" points="144.6 158.11 147.8 158.33 147.8 155.07 144.6 154.78 144.6 158.11"/>
            <polygon class="cls-4" points="144.32 157.91 147.24 158.11 147.24 155.14 144.32 154.87 144.32 157.91"/>
          </g>
          <g>
            <polygon class="cls-6" points="150.9 170.39 153.52 170.57 153.52 167.75 150.9 167.52 150.9 170.39"/>
            <polygon class="cls-4" points="150.58 170.24 152.99 170.41 152.99 167.81 150.58 167.6 150.58 170.24"/>
            <polygon class="cls-6" points="144.6 170.19 147.8 170.41 147.8 167.14 144.6 166.86 144.6 170.19"/>
            <polygon class="cls-4" points="144.32 169.99 147.24 170.19 147.24 167.21 144.32 166.95 144.32 169.99"/>
          </g>
          <g>
            <polygon class="cls-6" points="150.9 182.5 153.52 182.69 153.52 179.86 150.9 179.63 150.9 182.5"/>
            <polygon class="cls-4" points="150.58 182.35 152.99 182.52 152.99 179.92 150.58 179.71 150.58 182.35"/>
            <polygon class="cls-6" points="144.6 182.3 147.8 182.52 147.8 179.26 144.6 178.97 144.6 182.3"/>
            <polygon class="cls-4" points="144.32 182.1 147.24 182.3 147.24 179.32 144.32 179.06 144.32 182.1"/>
          </g>
        </g>
      </g>
      <polygon class="cls-1" points="83.29 170.95 71.34 170.95 71.34 133.43 169.79 133.33 169.79 205.14 157.63 205.14 157.63 146.5 139.97 142.03 139.97 189.43 130.72 189.43 130.72 143.17 111.58 143.17 111.58 199.97 102.12 199.97 102.12 142.71 83.39 146.77 83.29 170.95"/>
      <g>
        <rect class="cls-7" x="113.85" y="145.48" width="14.33" height="50.59"/>
        <g>
          <g>
            <g>
              <polygon class="cls-6" points="115.56 158.53 119.12 158.53 119.12 154.86 115.56 154.82 115.56 158.53"/>
              <polygon class="cls-4" points="115.88 158.2 118.8 158.18 118.8 155.17 115.88 155.16 115.88 158.2"/>
            </g>
            <g>
              <polygon class="cls-6" points="122.61 158.53 126.17 158.53 126.17 154.86 122.61 154.82 122.61 158.53"/>
              <polygon class="cls-4" points="122.92 158.2 125.84 158.18 125.84 155.17 122.92 155.16 122.92 158.2"/>
            </g>
          </g>
          <g>
            <g>
              <polygon class="cls-6" points="115.56 170.43 119.12 170.43 119.12 166.75 115.56 166.72 115.56 170.43"/>
              <polygon class="cls-4" points="115.88 170.1 118.8 170.08 118.8 167.07 115.88 167.06 115.88 170.1"/>
            </g>
            <g>
              <polygon class="cls-6" points="122.61 170.43 126.17 170.43 126.17 166.75 122.61 166.72 122.61 170.43"/>
              <polygon class="cls-4" points="122.92 170.1 125.84 170.08 125.84 167.07 122.92 167.06 122.92 170.1"/>
            </g>
          </g>
          <g>
            <g>
              <polygon class="cls-6" points="115.56 182.6 119.12 182.6 119.12 178.93 115.56 178.89 115.56 182.6"/>
              <polygon class="cls-4" points="115.88 182.27 118.8 182.25 118.8 179.24 115.88 179.23 115.88 182.27"/>
            </g>
            <g>
              <polygon class="cls-6" points="122.61 182.6 126.17 182.6 126.17 178.93 122.61 178.89 122.61 182.6"/>
              <polygon class="cls-4" points="122.92 182.27 125.84 182.25 125.84 179.24 122.92 179.23 122.92 182.27"/>
            </g>
          </g>
        </g>
      </g>
      <path class="cls-2" d="m71.34,130.56v-9.63s37.49-2.21,38.96-37.24c.26-6.18-.8-12.35-2.86-18.37-.8-2.33-2.39-5.37-3.7-9.14,0,0-5.7-18.64,16.82-18.64,0,0,22.34-1.23,16.97,18.64-.57,2.1-2.81,5.54-3.88,8.67-2.09,6.17-3.18,12.49-2.91,18.83,1.49,35.03,39.04,37.24,39.04,37.24v9.63h-98.44"/>
    </g>
  </g>
</svg>